# xmcd
#
# Track frame offsets: 
#        150
#        33547
#        71854
#        121313
#        186727
#        193430
#
# Disc length: 3764 seconds
#
# Revision: 0
# Processed by: cddbd v1.5.2PL0 Copyright (c) Steve Scherf et al.
# Submitted via: ExactAudioCopyFreeDBPlugin 1.0
#
DISCID=640eb206
DTITLE=Yevgeny Sudbin - Medtner PC #3, Scriabin PC
DYEAR=2014
DGENRE=Classical
TTITLE0=Scriabin - Piano Concerto in F sharp minor, op.20 - Allegro
TTITLE1=Andante
TTITLE2=Allegro moderato
TTITLE3=Medtner - Piano Concerto #3 in E minor, op.60 'Ballade' - Con 
TTITLE3=moto largamento - Allegretto con moto
TTITLE4=Interludium: Allegro, molto sostenuto, misterioso
TTITLE5=Finale: Allegro molto, svegliando, eroico - Andante con moto
TTITLE5=tranquillo - Allegro oloto - Coda: Maestoso, ma appassionato
EXTD=
EXTT0=
EXTT1=
EXTT2=
EXTT3=
EXTT4=
EXTT5=
PLAYORDER=
